HIERARCHY
ROOT Hips
{
	OFFSET 0.000000 8.830580 0.000000
	CHANNELS 6 Xposition Yposition Zposition Zrotation Yrotation Xrotation 
	JOINT Spine
	{
		OFFSET 0.000000 0.010000 0.000000
		CHANNELS 3 Zrotation Yrotation Xrotation
		JOINT Spine1
		{
			OFFSET 0.000000 2.459130 0.000000
			CHANNELS 3 Zrotation Yrotation Xrotation
			JOINT Neck
			{
				OFFSET 0.000000 2.484630 0.000000
				CHANNELS 3 Zrotation Yrotation Xrotation
				JOINT Head_virtual
				{
					OFFSET 0.000000 0.000000 0.000000
					CHANNELS 3 Zrotation Yrotation Xrotation
					JOINT Head
					{
						OFFSET 0.000000 0.927525 0.000000
						CHANNELS 3 Zrotation Yrotation Xrotation
						End Site
						{
							OFFSET 0.000000 0.000000 0.000000
						}
					}
				}
				JOINT LeftUpArm_virtual
				{
					OFFSET 0.000000 0.000000 0.000000
					CHANNELS 3 Zrotation Yrotation Xrotation
					JOINT LeftUpArm
					{
						OFFSET 1.248820 0.000000 0.000000
						CHANNELS 3 Zrotation Yrotation Xrotation
						JOINT LeftForeArm
						{
							OFFSET 2.597580 0.000000 0.000000
							CHANNELS 3 Zrotation Yrotation Xrotation
							JOINT LeftHand
							{
								OFFSET 2.455420 0.000000 0.000000
								CHANNELS 3 Zrotation Yrotation Xrotation
								End Site
								{
									OFFSET 0.000000 0.000000 0.000000
								}
							}
						}
					}
				}
				JOINT RightUpArm_virtual
				{
					OFFSET -0.000000 -0.000000 -0.000000
					CHANNELS 3 Zrotation Yrotation Xrotation
					JOINT RightUpArm
					{
						OFFSET -1.248820 -0.000000 -0.000000
						CHANNELS 3 Zrotation Yrotation Xrotation
						JOINT RightForeArm
						{
							OFFSET -2.597580 -0.000000 -0.000000
							CHANNELS 3 Zrotation Yrotation Xrotation
							JOINT RightHand
							{
								OFFSET -2.455420 -0.000000 -0.000000
								CHANNELS 3 Zrotation Yrotation Xrotation
								End Site
								{
									OFFSET 0.000000 0.000000 0.000000
								}
							}
						}
					}
				}
			}
		}
	}
	JOINT LeftUpLeg
	{
		OFFSET 1.271939 0.000000 0.000000
		CHANNELS 3 Zrotation Yrotation Xrotation
		JOINT LeftLowLeg
		{
			OFFSET 0.000000 -4.342910 0.000000
			CHANNELS 3 Zrotation Yrotation Xrotation
			JOINT LeftFoot
			{
				OFFSET 0.000000 -4.487670 0.000000
				CHANNELS 3 Zrotation Yrotation Xrotation
				JOINT LeftToeBase
				{
					OFFSET 0.000000 0.000000 1.515070
					CHANNELS 3 Zrotation Yrotation Xrotation
					End Site
					{
						OFFSET 0.000000 0.000000 0.000000
					}
				}
			}
		}
	}
	JOINT RightUpLeg
	{
		OFFSET -1.271939 0.000000 0.000000
		CHANNELS 3 Zrotation Yrotation Xrotation
		JOINT RightLowLeg
		{
			OFFSET 0.000000 -4.342910 0.000000
			CHANNELS 3 Zrotation Yrotation Xrotation
			JOINT RightFoot
			{
				OFFSET 0.000000 -4.487670 0.000000
				CHANNELS 3 Zrotation Yrotation Xrotation
				JOINT RightToeBase
				{
					OFFSET 0.000000 0.000000 1.515070
					CHANNELS 3 Zrotation Yrotation Xrotation
					End Site
					{
						OFFSET 0.000000 0.000000 0.000000
					}
				}
			}
		}
	}
}
MOTION
Frames: 16
Frame Time: 0.041667
-15.661921 8.960517 35.232726 -177.337845 -11.616343 -170.537659 7.441627 -0.090613 -24.913533 -5.509878 -0.434836 10.993020 0.000000 0.000000 0.000000 15.387735 -0.396641 4.434943 -10.651982 -11.218852 -63.546317 -28.889999 -4.711710 10.386800 -39.332298 -26.778200 11.079010 0.000000 -39.805000 0.000000 26.393900 0.495402 21.771400 30.558300 -0.852121 2.982000 43.381901 12.903900 10.924500 0.000000 23.081699 0.000000 -5.621930 -0.434863 3.894820 2.720083 -20.020499 -13.752927 0.000000 0.000000 16.911301 -2.857662 20.103702 -8.534306 0.000000 0.000000 -12.247540 3.943345 30.260262 -6.329892 0.000000 0.000000 4.421740 5.853567 -25.349937 1.974046 0.000000 0.000000 -16.496720 
-15.676692 8.957749 35.233041 -177.162385 -12.232542 -170.825473 7.488925 -0.500691 -25.093325 -4.901785 -0.608550 11.901481 0.000000 0.000000 0.000000 15.322532 -0.934841 3.336308 -10.733513 -11.342460 -63.269540 -28.815701 -4.822270 10.034000 -39.867001 -26.327700 11.618011 0.000000 -39.866798 0.000000 24.655899 1.109670 21.728201 30.003300 -0.855626 2.424580 43.659801 12.229000 10.915300 0.000000 22.130100 0.000000 -5.253650 -1.098110 6.052100 2.610920 -18.905321 -14.511907 0.000000 0.000000 19.146099 -3.191678 23.066138 -9.173798 0.000000 0.000000 -11.952900 4.292110 29.674922 -6.033392 0.000000 0.000000 4.537160 5.892602 -25.339918 1.899411 0.000000 0.000000 -16.599590 
-15.688734 8.951139 35.244708 -176.912997 -12.464483 -171.055228 7.850942 -0.413563 -24.232472 -5.037333 -1.022222 11.047780 0.000000 0.000000 0.000000 15.479988 -1.139348 3.430094 -10.907369 -11.465496 -63.613643 -28.694401 -4.401990 10.220300 -39.997799 -25.761900 12.299988 0.000000 -39.418999 0.000000 22.585800 1.729550 21.188801 30.136000 -0.974349 2.741050 43.565899 11.581700 10.373000 0.000000 21.152201 0.000000 -4.850760 -1.835890 6.086390 2.614925 -17.130535 -15.344765 0.000000 0.000000 21.505301 -3.101002 24.747701 -9.572158 0.000000 0.000000 -11.810880 4.516542 29.599855 -6.017121 0.000000 0.000000 4.791970 6.233631 -25.275597 1.670351 0.000000 0.000000 -16.735470 
-15.704157 8.944419 35.252510 -176.699013 -12.851853 -171.312755 7.973184 -0.577203 -23.958792 -4.694324 -1.222601 11.271800 0.000000 0.000000 0.000000 15.513970 -1.345400 2.865691 -10.944351 -11.487990 -63.843260 -28.703501 -4.396350 10.217800 -40.126301 -25.214001 13.140015 0.000000 -38.565399 0.000000 20.093399 2.403350 20.658001 30.057501 -1.074750 2.617700 43.500099 11.012100 9.994860 0.000000 19.730101 0.000000 -4.889980 -1.900130 5.866030 2.861100 -16.331364 -16.104248 0.000000 0.000000 23.821100 -2.145881 25.062300 -9.472979 0.000000 0.000000 -11.740540 4.756973 29.311286 -5.777418 0.000000 0.000000 4.776800 6.548710 -25.171750 1.469030 0.000000 0.000000 -16.784110 
-15.725416 8.939700 35.255765 -176.461884 -13.360253 -171.522019 8.144090 -0.754648 -23.919004 -4.412555 -1.424914 11.700869 0.000000 0.000000 0.000000 15.587930 -1.470206 2.364276 -10.894740 -11.469254 -64.236927 -28.841600 -4.426520 10.087900 -40.143299 -24.480000 14.381012 0.000000 -37.434502 0.000000 17.907400 3.210430 22.042500 30.213200 -1.117520 2.495170 43.108299 10.181800 9.304670 0.000000 18.643299 0.000000 -4.720090 -2.315080 5.438820 3.340241 -16.479727 -16.836651 0.000000 0.000000 26.004999 -1.986912 24.489662 -9.558078 0.000000 0.000000 -11.732550 4.975315 29.409969 -5.518989 0.000000 0.000000 4.689040 6.845988 -25.591708 1.247614 0.000000 0.000000 -16.728870 
-15.746774 8.934904 35.255559 -176.311986 -13.715794 -171.593744 8.179332 -0.907742 -24.050710 -4.104271 -1.479947 12.212737 0.000000 0.000000 0.000000 15.653858 -1.484405 1.817878 -10.787516 -11.306898 -64.502673 -29.016800 -4.462680 10.094700 -40.083302 -23.699800 15.653992 0.000000 -36.102100 0.000000 15.586600 4.145220 22.983500 30.416100 -1.226240 2.411690 42.696999 9.359190 8.665720 0.000000 17.520500 0.000000 -4.622930 -2.589200 5.285500 3.903011 -17.234921 -17.391999 0.000000 0.000000 27.635099 -2.267453 23.729523 -9.295809 0.000000 0.000000 -11.856970 5.098919 29.087833 -5.268757 0.000000 0.000000 4.410160 6.898935 -25.626252 1.193516 0.000000 0.000000 -16.696250 
-15.769842 8.931419 35.247022 -176.157756 -13.873381 -171.620103 8.154795 -1.054374 -24.353491 -3.691799 -1.453171 12.800587 0.000000 0.000000 0.000000 15.782624 -1.617303 1.203761 -10.802456 -11.108010 -64.609916 -29.197000 -4.464210 10.055600 -40.259899 -22.680599 16.687012 0.000000 -34.426701 0.000000 13.639200 4.783500 24.154499 30.532200 -1.397470 2.435180 42.404701 8.662840 8.200360 0.000000 16.177700 0.000000 -4.599580 -2.849000 4.915670 4.543950 -18.309220 -17.522762 0.000000 0.000000 28.406000 -4.853047 22.224982 -9.396539 0.000000 0.000000 -12.194030 5.205913 29.049516 -5.044880 0.000000 0.000000 4.181340 6.619532 -25.885576 1.303391 0.000000 0.000000 -16.785520 
-15.794260 8.927890 35.234278 -176.007856 -13.902438 -171.520969 8.057071 -1.222771 -24.743713 -3.180005 -1.383847 13.269140 0.000000 0.000000 0.000000 15.794363 -1.524162 0.798663 -10.748189 -10.917035 -64.798076 -29.398500 -4.325230 10.001000 -40.571701 -21.518700 17.678986 0.000000 -32.489300 0.000000 12.018300 5.311590 25.034500 30.526501 -1.603430 2.443740 42.250999 7.858560 7.840880 0.000000 14.885100 0.000000 -4.509730 -3.269120 4.698900 5.207497 -19.123489 -17.232915 0.000000 0.000000 27.929399 -8.195091 19.456217 -10.353272 0.000000 0.000000 -12.199570 5.221522 29.162148 -4.994977 0.000000 0.000000 4.054900 6.685911 -26.018575 1.171882 0.000000 0.000000 -16.675290 
-15.822334 8.925483 35.220077 -175.856583 -13.739296 -171.341841 8.053274 -1.250515 -25.020169 -2.891256 -1.339738 13.351317 0.000000 0.000000 0.000000 15.938574 -1.440483 0.635773 -10.870378 -10.650318 -64.972599 -29.630501 -4.073450 10.084000 -40.848801 -20.091499 18.500000 0.000000 -30.328199 0.000000 11.148700 5.766710 25.486200 30.575600 -1.896190 2.463650 42.172699 6.965250 7.681910 0.000000 13.681100 0.000000 -4.714980 -3.309870 2.788500 5.638347 -19.188270 -16.539304 0.000000 0.000000 26.448900 -8.118396 17.618092 -10.328184 0.000000 0.000000 -12.385270 5.168309 29.326307 -5.061568 0.000000 0.000000 4.000370 6.651014 -26.094136 1.085671 0.000000 0.000000 -16.495730 
-15.853305 8.924082 35.207986 -175.767861 -13.517052 -171.166349 8.055255 -1.250720 -25.157912 -2.770424 -1.324088 13.216493 0.000000 0.000000 0.000000 16.192120 -1.390891 0.567495 -11.052287 -10.301588 -65.050602 -29.870800 -3.737060 10.202000 -41.115501 -18.524599 19.138000 0.000000 -27.914600 0.000000 10.331900 6.138580 24.771400 30.593201 -2.124490 2.250130 42.313801 5.836470 7.302810 0.000000 12.298200 0.000000 -4.208230 -4.219150 6.644670 5.732987 -19.082700 -15.580074 0.000000 0.000000 24.581699 -7.901944 16.969787 -10.431450 0.000000 0.000000 -12.076390 5.030532 29.655959 -5.208374 0.000000 0.000000 4.102090 6.536447 -26.339341 0.998468 0.000000 0.000000 -16.515020 
-15.886164 8.925004 35.193417 -175.747102 -13.161417 -171.009007 8.047413 -1.145975 -25.300217 -2.845021 -1.232319 13.145695 0.000000 0.000000 0.000000 16.538893 -1.334411 0.449661 -11.243618 -9.814715 -65.077943 -30.048000 -3.420660 10.325700 -41.418201 -16.944500 19.467987 0.000000 -25.093399 0.000000 9.862960 6.582410 23.731701 30.727501 -2.467480 2.078800 42.422901 4.757580 6.846580 0.000000 11.188300 0.000000 -4.004440 -5.104000 9.993740 5.447066 -18.350233 -14.374982 0.000000 0.000000 22.389700 -7.397879 16.870979 -10.326400 0.000000 0.000000 -11.721230 4.824281 30.107880 -5.385233 0.000000 0.000000 4.348000 6.424401 -26.612491 0.896371 0.000000 0.000000 -16.489040 
-15.921459 8.928234 35.181753 -175.827214 -12.884276 -170.896057 8.002707 -1.108245 -25.386987 -3.023217 -1.172397 13.160405 0.000000 0.000000 0.000000 16.996461 -1.351828 0.251935 -11.570960 -9.272115 -65.240009 -30.256901 -3.089370 10.414700 -41.630100 -15.360400 19.574005 0.000000 -22.117901 0.000000 9.364480 6.947710 24.014999 30.797199 -2.804710 1.775230 42.678501 3.606980 6.229460 0.000000 10.240200 0.000000 -3.875540 -5.684360 11.287000 4.905247 -17.588756 -13.046420 0.000000 0.000000 19.996901 -6.400814 17.329018 -9.823193 0.000000 0.000000 -11.422930 4.534282 30.667022 -5.520163 0.000000 0.000000 4.620190 6.339020 -27.096439 0.763057 0.000000 0.000000 -16.482860 
-15.957180 8.931502 35.171410 -175.940587 -12.646565 -170.751830 7.936430 -1.073166 -25.521299 -3.271678 -1.093343 13.235453 0.000000 0.000000 0.000000 17.411734 -1.281224 0.120209 -11.752109 -8.809306 -65.646270 -30.296301 -2.772040 10.545500 -41.961700 -13.925000 19.217010 0.000000 -18.872700 0.000000 8.465680 7.486330 23.170799 30.860300 -3.128540 1.569350 42.984001 2.474060 5.500450 0.000000 9.590490 0.000000 -3.709190 -6.480850 11.758200 4.365245 -17.110888 -11.853998 0.000000 0.000000 17.759001 -5.214489 18.057439 -9.129209 0.000000 0.000000 -11.233410 4.255113 30.278632 -5.758382 0.000000 0.000000 5.069470 6.112012 -26.730404 0.695421 0.000000 0.000000 -16.507750 
-15.990618 8.935537 35.160054 -176.025223 -12.353759 -170.692045 7.812333 -1.065350 -25.586241 -3.383608 -0.989251 13.278715 0.000000 0.000000 0.000000 17.663659 -1.111650 0.128162 -11.786697 -8.542680 -66.205522 -30.222200 -2.545260 10.511200 -42.493000 -12.262700 18.399994 0.000000 -15.644500 0.000000 7.520060 8.202080 23.226999 30.858801 -3.619250 1.616470 43.370399 1.713050 4.504520 0.000000 8.863020 0.000000 -3.724230 -7.133250 12.007200 3.960067 -16.978669 -10.698233 0.000000 0.000000 15.766400 -4.389435 18.618094 -8.462667 0.000000 0.000000 -11.232650 4.012762 30.517473 -5.905143 0.000000 0.000000 5.473550 5.955481 -26.914268 0.614793 0.000000 0.000000 -16.548500 
-16.025328 8.937636 35.161825 -176.061244 -12.491812 -170.366662 7.821884 -1.149913 -25.669745 -3.634642 -1.089594 13.058203 0.000000 0.000000 0.000000 17.790512 -0.858516 0.130866 -11.661124 -8.378132 -66.878779 -30.031099 -2.269840 10.438100 -42.980801 -10.661800 17.347992 0.000000 -12.651900 0.000000 6.383100 9.383860 24.054701 30.910200 -3.942810 1.519250 43.740501 0.597654 3.440510 0.000000 8.401920 0.000000 -3.607650 -7.279920 12.078800 3.891318 -17.245857 -10.507089 0.000000 0.000000 14.730200 -4.378447 18.525334 -8.169273 0.000000 0.000000 -11.180130 3.693975 29.995746 -6.419129 0.000000 0.000000 5.883320 5.876193 -26.707939 0.523785 0.000000 0.000000 -16.652560 
-16.057664 8.939616 35.157969 -176.092801 -12.436164 -170.129019 7.753996 -1.181878 -25.752180 -3.725080 -1.067572 12.952987 0.000000 0.000000 0.000000 17.760184 -0.640504 -0.050695 -11.492582 -8.293390 -67.397284 -29.708200 -1.967300 10.151600 -43.565899 -8.954770 16.042999 0.000000 -9.968160 0.000000 5.363530 10.833000 25.703100 30.919399 -4.286310 1.522870 44.096401 -0.419646 2.551450 0.000000 8.111160 0.000000 -3.335170 -7.525280 12.041300 3.802919 -17.264467 -10.295268 0.000000 0.000000 13.978400 -4.728993 18.100737 -8.058032 0.000000 0.000000 -11.118960 3.416882 29.795537 -6.814425 0.000000 0.000000 6.287540 5.668012 -26.639174 0.485878 0.000000 0.000000 -16.734580 
